<svg width="28" height="40" viewBox="0 0 28 40" fill="none" xmlns="http://www.w3.org/2000/svg">
<path d="M27.4253 4.60882C27.4253 4.83642 27.3684 5.12091 27.2546 5.4623C27.1408 5.8037 27.027 6.14509 26.9132 6.48649C26.7425 6.82788 26.6287 7.16928 26.458 7.51067C26.2873 7.85206 26.1166 8.07966 25.9459 8.19346C25.889 8.30726 25.8891 8.36415 25.8891 8.42105C25.8891 8.47795 25.9459 8.59175 25.9459 8.64865C25.9459 8.70555 25.889 8.81935 25.7752 8.93314C25.6614 9.04694 25.5476 9.21764 25.4338 9.33144C25.32 9.50213 25.1494 9.61593 25.0356 9.72973C24.9218 9.84353 24.808 9.95733 24.7511 10.0711L24.808 10.4125C24.808 10.4694 24.7511 10.6401 24.6942 10.9246C24.6373 11.2091 24.5804 11.4936 24.5235 11.835C24.4666 12.1764 24.4096 12.4609 24.3527 12.7454C24.2958 13.0299 24.239 13.2006 24.239 13.2006C24.1252 13.3144 24.0114 13.4282 23.8976 13.4851C23.7838 13.542 23.67 13.6558 23.6131 13.8265C23.4993 14.111 23.4424 14.3954 23.4424 14.6799C23.4424 14.9644 23.3855 15.2489 23.2148 15.5334C23.1579 15.6472 23.0441 15.8179 22.9303 15.9317C22.8165 16.1024 22.6458 16.2731 22.4751 16.4438C22.3044 16.6145 22.1337 16.7852 22.0199 16.9559C21.9061 17.1266 21.7923 17.2973 21.7354 17.4111C21.6216 17.5818 21.6216 17.6956 21.6216 17.8663C21.6216 18.037 21.6216 18.1508 21.5078 18.3215C21.3371 18.6629 21.0526 19.0043 20.7681 19.2888C20.4836 19.5733 20.1991 19.9147 19.9715 20.1991C19.7439 20.5405 19.5732 20.8819 19.5163 21.2233C19.4594 21.5647 19.3456 21.963 19.1749 22.3044C19.0042 22.5889 18.8335 22.8165 18.6059 22.9872C18.3784 23.1579 18.1508 23.3855 18.037 23.6131C18.037 23.7269 18.0939 23.7838 18.1508 23.8407C18.2077 23.8976 18.3214 23.9545 18.3783 24.0114C18.4921 24.0683 18.549 24.1252 18.6059 24.1821C18.6628 24.239 18.7198 24.2959 18.7767 24.3528C18.8905 24.5235 18.9473 24.6942 18.9473 24.8649C18.9473 24.9787 19.0611 25.1494 19.2318 25.3201C19.6301 25.889 19.9715 26.3442 20.256 26.8563C20.5405 27.3115 20.825 27.8805 21.1095 28.4495L21.5078 28.6202C21.6216 28.9047 21.6785 29.1892 21.6785 29.4737C21.6785 29.7582 21.7354 30.0427 21.9061 30.3272C22.1337 30.7824 22.4182 31.1807 22.8165 31.522C23.2148 31.8634 23.6131 32.2048 24.0114 32.4893C24.0683 32.8876 24.1821 33.1721 24.4097 33.3428C24.6373 33.5135 24.8649 33.7411 25.0925 33.9687C25.32 34.1963 25.5476 34.4808 25.7183 34.8791C25.889 35.2774 26.0028 35.8464 26.0028 36.5861C26.0028 36.643 25.889 36.8137 25.7183 37.0981C25.5476 37.4395 25.3769 37.7809 25.1493 38.1792C24.9217 38.5775 24.751 38.9189 24.5803 39.2603C24.4096 39.6017 24.2958 39.7724 24.2958 39.7724C24.0683 39.7724 23.8976 39.7724 23.7269 39.7155C23.5562 39.6586 23.3855 39.6586 23.2148 39.6586C22.9303 39.6586 22.6458 39.7724 22.3613 39.9431C21.7923 39.8293 21.3371 39.6017 20.9388 39.3172C20.5974 39.0327 20.256 38.6913 19.9715 38.293C19.687 37.8947 19.4025 37.4964 19.1181 37.0981C18.8336 36.6999 18.4922 36.3016 18.1508 35.9602C18.0939 35.7326 18.037 35.5619 17.9232 35.3912C17.8663 35.2205 17.8094 34.9929 17.7525 34.8222C16.9559 34.1394 16.2162 33.3997 15.6472 32.6031C15.0782 31.8065 14.623 30.8393 14.3385 29.8151C14.054 29.8151 13.8265 29.9858 13.6558 30.2703C13.4851 30.5548 13.3144 30.8393 13.0868 31.1807C12.9161 31.522 12.6884 31.8065 12.4039 32.091C12.1194 32.3755 11.7781 32.5462 11.3798 32.5462C11.3798 32.8307 11.266 33.0583 11.1522 33.2859C11.0384 33.5135 10.8677 33.6842 10.697 33.8549C10.5263 34.0256 10.3556 34.1963 10.2418 34.367C10.0711 34.5377 9.95734 34.7653 9.90044 34.9929C9.61595 35.1067 9.33144 35.2205 9.10384 35.3343C8.81935 35.4481 8.59172 35.6188 8.36413 35.7895C8.19343 35.9602 8.02277 36.1309 7.90898 36.3585C7.79518 36.5861 7.68132 36.8137 7.56753 37.0413C7.45373 37.2688 7.33994 37.4964 7.22615 37.724C7.11235 37.9516 6.99858 38.1223 6.82788 38.2361C6.77098 38.293 6.71406 38.293 6.65716 38.3499C6.60026 38.3499 6.5434 38.4068 6.4865 38.4068C6.4296 38.4068 6.42956 38.4637 6.37266 38.5206C6.37266 38.5775 6.37265 38.6344 6.42955 38.6913C6.08815 38.7482 5.74677 38.8051 5.51918 38.9758C5.23468 39.0896 5.00713 39.2603 4.77953 39.431C4.55193 39.6017 4.3243 39.7155 4.0967 39.8293C3.8691 39.9431 3.69844 40 3.41394 40C3.18634 40 2.95871 39.9431 2.73111 39.8293C2.50351 39.7155 2.33282 39.6017 2.16212 39.431L1.93458 39.0327C1.70698 38.862 1.53627 38.6913 1.42248 38.6344C1.30868 38.5775 1.25175 38.4637 1.25175 38.4068C1.19485 38.3499 1.19487 38.293 1.19487 38.2361C1.19487 38.1792 1.08105 38.0654 0.967255 37.8947L0.625875 37.724C0.512077 37.4964 0.512105 37.2688 0.512105 36.9275C0.512105 36.643 0.512049 36.3585 0.45515 36.1309C0.398251 35.9033 0.284453 35.7326 0.170655 35.505C0.0568573 35.2774 0 35.1067 0 34.8791C0 34.7653 -1.38922e-05 34.6515 0.0568851 34.5377C0.113784 34.4239 0.113756 34.3101 0.170655 34.1963L0.625875 33.9687C0.739673 33.6273 0.967269 33.3428 1.19487 33.1152C1.42246 32.8876 1.70697 32.7169 1.99147 32.5462C2.27596 32.3755 2.56046 32.2048 2.84495 32.0341C3.12945 31.8634 3.41395 31.6927 3.64155 31.4651C3.98294 31.1807 4.32431 30.8962 4.60881 30.6117C4.8933 30.3272 5.23467 30.0427 5.57606 29.7582C5.57606 29.5306 5.63299 29.303 5.74679 29.0754C5.86058 28.9047 5.91751 28.6771 5.91751 28.4495C6.6572 27.7667 7.33993 27.1408 8.13652 26.5149C8.8762 25.889 9.55905 25.1494 10.1849 24.3528C9.95734 24.1252 9.84349 23.8976 9.84349 23.6131C9.84349 23.3286 9.72974 23.0441 9.61595 22.8165C9.50215 22.6458 9.38832 22.4751 9.16073 22.3613C8.99003 22.2475 8.81932 22.0768 8.64862 21.8492C8.53482 21.7354 8.42105 21.5078 8.25036 21.2802C8.07966 21.0526 7.85206 20.825 7.68137 20.5405C7.51067 20.3129 7.28306 20.0853 7.16926 19.8578C6.99856 19.6302 6.88478 19.4595 6.82788 19.3457C6.60029 19.0043 6.48646 18.6629 6.37266 18.3784C6.31576 18.0939 6.20195 17.8094 6.14505 17.5249C6.03125 17.2404 5.91748 16.9559 5.74679 16.6145C5.57609 16.33 5.29159 15.9317 4.8933 15.5334C4.8933 15.4196 4.89329 15.3627 4.95019 15.2489C4.95019 15.1351 5.00707 15.0782 5.00707 14.9644C5.00707 14.6799 4.95021 14.3954 4.83642 14.1679C4.72262 13.9403 4.60883 13.6558 4.49504 13.4282C4.38124 13.2006 4.32432 12.9161 4.26743 12.6885C4.21053 12.4609 4.2105 12.1764 4.3812 11.9488C3.9829 11.4367 3.58462 10.9246 3.18633 10.4125C2.78804 9.90043 2.38974 9.38834 2.04835 8.87625C1.70696 8.30725 1.42246 7.73826 1.19487 7.16927C0.967269 6.60028 0.853485 5.9175 0.853485 5.23471C0.853485 4.72262 0.967269 4.32432 1.19487 3.92603C1.42246 3.52774 1.76384 3.18634 2.10524 2.95875C2.50353 2.67425 2.90186 2.44666 3.35706 2.33286C3.81225 2.16216 4.2674 2.10526 4.66569 2.10526C5.23468 2.10526 5.68986 2.27596 6.14505 2.61735C6.60024 2.95875 6.99854 3.41394 7.28303 3.92603C7.62443 4.43812 7.90893 5.00711 8.07963 5.5761C8.30723 6.14509 8.42107 6.65718 8.47797 7.11238C8.53487 7.16927 8.64864 7.39687 8.87623 7.62447C9.10383 7.90896 9.33145 8.19346 9.61595 8.53485C9.84354 8.81935 10.0711 9.10384 10.2987 9.38834C10.5263 9.67283 10.6401 9.78663 10.6401 9.78663C10.697 9.90043 10.7539 10.0142 10.7539 10.128C10.7539 10.2418 10.7539 10.2987 10.7539 10.4125C10.7539 10.5263 10.8108 10.6401 10.8677 10.7539C10.9246 10.8677 11.0384 11.0953 11.2091 11.3229C11.266 11.4936 11.266 11.6074 11.266 11.7781C11.266 11.9488 11.2091 12.0626 11.2091 12.2333C11.2091 12.404 11.266 12.6316 11.4367 12.973C11.6074 13.3144 11.7781 13.6558 12.0057 14.0541C12.2333 14.3954 12.4609 14.7368 12.7454 15.0213C12.973 15.3058 13.2006 15.4765 13.3144 15.5334C13.3713 15.8748 13.4281 16.2162 13.5419 16.5576C13.6557 16.899 13.8264 17.1835 14.1109 17.468C14.3385 17.468 14.5661 17.3542 14.6799 17.2404C14.7937 17.1266 14.9076 16.9559 15.0214 16.7852C15.1352 16.6145 15.2489 16.4438 15.3627 16.2731C15.4765 16.1024 15.6472 15.9886 15.8179 15.9317C15.8179 15.8179 15.8748 15.5903 15.9886 15.3627C16.1024 15.0782 16.2162 14.7937 16.33 14.4523C16.4438 14.1679 16.5576 13.8834 16.6714 13.5989C16.7852 13.3144 16.899 13.1437 16.9559 13.0868C17.1835 12.8023 17.468 12.5178 17.8093 12.3471C18.1507 12.1764 18.4352 11.8919 18.6628 11.5505L18.6059 11.0953C18.6059 10.9246 18.6629 10.6401 18.7198 10.2418C18.7767 9.84353 18.8335 9.50213 18.9473 9.10384C19.0042 8.70555 19.118 8.30725 19.2318 7.96586C19.3456 7.62447 19.4025 7.33997 19.5163 7.16927C19.687 6.82788 19.9715 6.48649 20.3129 6.25889C20.6543 6.03129 20.8819 5.6899 21.1095 5.29161C21.2233 5.00711 21.2802 4.66572 21.2233 4.38122C21.1664 4.09673 21.2233 3.81223 21.2802 3.52774C21.394 3.18634 21.5078 2.78805 21.7354 2.33286C21.963 1.93457 22.1906 1.53627 22.4751 1.19488C22.7596 0.853485 23.101 0.56899 23.4992 0.341394C23.8975 0.113798 24.2959 0 24.6942 0C24.8649 0 24.9787 0 25.0925 0C25.2062 0 25.3769 0.056899 25.4907 0.113798L25.8322 0.455192C26.1736 0.512091 26.4011 0.682788 26.5718 0.853485C26.7425 1.02418 26.7994 1.25178 26.9132 1.47937C26.9701 1.70697 27.027 1.99147 27.1408 2.21906C27.1977 2.50356 27.3684 2.73115 27.596 2.95875C27.4822 3.07255 27.4253 3.24324 27.4253 3.52774C27.4253 3.69844 27.4822 3.86913 27.5391 4.03983C27.4253 4.26743 27.4253 4.43812 27.4253 4.60882Z" fill="white"/>
</svg>
